<svg xmlns="http://www.w3.org/2000/svg" xmlns:xlink="http://www.w3.org/1999/xlink" width="32" height="32" viewBox="0 0 32 32">
    <defs>
        <path id="xoq0c92x3a" d="M0 0L26 0 26 26.125 0 26.125z"/>
    </defs>
    <g fill="none" fill-rule="evenodd">
        <g>
            <g>
                <path d="M0 0H32V32H0z" transform="translate(-1568 -90) translate(1568 90)"/>
                <g transform="translate(-1568 -90) translate(1568 90) translate(3 3)">
                    <mask id="4bgu7jdb1b" fill="#fff">
                        <use xlink:href="#xoq0c92x3a"/>
                    </mask>
                    <path fill="#8B8C8D" d="M18.957 15.655c-.324-.162-1.915-.944-2.211-1.052-.297-.108-.512-.162-.727.162-.216.325-.836 1.053-1.026 1.268-.188.216-.377.243-.699.08-.324-.16-1.367-.503-2.602-1.604-.962-.858-1.61-1.917-1.8-2.24-.188-.325-.02-.5.143-.66.145-.146.323-.38.485-.568.161-.189.215-.323.323-.54.107-.215.054-.404-.027-.566-.081-.162-.727-1.754-.997-2.402-.263-.63-.53-.545-.728-.555-.188-.01-.404-.012-.62-.012-.215 0-.566.081-.862.405-.297.324-1.132 1.107-1.132 2.699 0 1.592 1.158 3.13 1.32 3.345.162.217 2.28 3.484 5.526 4.886.772.332 1.374.532 1.844.68.775.247 1.48.212 2.037.13.622-.095 1.914-.784 2.183-1.54.27-.755.27-1.402.19-1.538-.082-.135-.297-.215-.62-.378m-5.902 8.06h-.005c-1.93-.002-3.824-.52-5.477-1.501l-.393-.234-4.071 1.07 1.086-3.97-.255-.408c-1.077-1.713-1.647-3.694-1.646-5.727.003-5.932 4.83-10.759 10.764-10.759 2.874.002 5.575 1.122 7.608 3.156 2.03 2.034 3.149 4.737 3.148 7.612-.002 5.932-4.83 10.76-10.76 10.76m9.158-19.918C19.768 1.35 16.517.001 13.055 0 5.919 0 .11 5.808.108 12.945c0 2.281.596 4.509 1.729 6.472L0 26.125l6.863-1.8c1.89 1.03 4.02 1.575 6.186 1.575h.006c7.134 0 12.942-5.807 12.945-12.945.002-3.46-1.344-6.712-3.788-9.159" mask="url(#4bgu7jdb1b)"/>
                </g>
            </g>
        </g>
    </g>
</svg>
